<mxfile host="app.diagrams.net" agent="Mozilla/5.0 (Windows NT 10.0; Win64; x64) AppleWebKit/537.36 (KHTML, like Gecko) Chrome/131.0.0.0 Safari/537.36" version="24.9.0">
  <diagram name="Page-1" id="801TfnayW_8dog86ukJj">
    <mxGraphModel grid="1" page="1" gridSize="10" guides="1" tooltips="1" connect="1" arrows="1" fold="1" pageScale="1" pageWidth="850" pageHeight="1100" math="0" shadow="0">
      <root>
        <mxCell id="0" />
        <mxCell id="1" parent="0" />
        <mxCell id="H8n-07sDliXM2BbVPuo5-1" value="" style="strokeWidth=1;shadow=0;dashed=0;align=center;html=1;shape=mxgraph.mockup.containers.browserWindow;rSize=0;strokeColor=#666666;strokeColor2=#008cff;strokeColor3=#c4c4c4;mainText=,;recursiveResize=0;" vertex="1" parent="1">
          <mxGeometry x="-10" width="850" height="1120" as="geometry" />
        </mxCell>
        <mxCell id="H8n-07sDliXM2BbVPuo5-2" value="Page 1" style="strokeWidth=1;shadow=0;dashed=0;align=center;html=1;shape=mxgraph.mockup.containers.anchor;fontSize=17;fontColor=#666666;align=left;whiteSpace=wrap;" vertex="1" parent="H8n-07sDliXM2BbVPuo5-1">
          <mxGeometry x="60" y="12" width="110" height="26" as="geometry" />
        </mxCell>
        <mxCell id="H8n-07sDliXM2BbVPuo5-3" value="https://www.draw.io" style="strokeWidth=1;shadow=0;dashed=0;align=center;html=1;shape=mxgraph.mockup.containers.anchor;rSize=0;fontSize=17;fontColor=#666666;align=left;" vertex="1" parent="H8n-07sDliXM2BbVPuo5-1">
          <mxGeometry x="130" y="60" width="250" height="26" as="geometry" />
        </mxCell>
        <mxCell id="H8n-07sDliXM2BbVPuo5-14" value="Search" style="strokeWidth=1;shadow=0;dashed=0;align=center;html=1;shape=mxgraph.mockup.buttons.button;strokeColor=#666666;fontColor=#ffffff;mainText=;buttonStyle=round;fontSize=17;fontStyle=1;fillColor=#008cff;whiteSpace=wrap;" vertex="1" parent="H8n-07sDliXM2BbVPuo5-1">
          <mxGeometry x="150" y="190" width="100" height="30" as="geometry" />
        </mxCell>
        <mxCell id="H8n-07sDliXM2BbVPuo5-4" value="" style="rounded=0;whiteSpace=wrap;html=1;" vertex="1" parent="H8n-07sDliXM2BbVPuo5-1">
          <mxGeometry y="110" width="850" height="80" as="geometry" />
        </mxCell>
        <mxCell id="H8n-07sDliXM2BbVPuo5-17" value="" style="endArrow=none;html=1;rounded=0;" edge="1" parent="H8n-07sDliXM2BbVPuo5-1" source="H8n-07sDliXM2BbVPuo5-4" target="H8n-07sDliXM2BbVPuo5-4">
          <mxGeometry width="50" height="50" relative="1" as="geometry">
            <mxPoint x="510" y="190" as="sourcePoint" />
            <mxPoint x="560" y="140" as="targetPoint" />
            <Array as="points">
              <mxPoint x="740" y="170" />
            </Array>
          </mxGeometry>
        </mxCell>
        <mxCell id="H8n-07sDliXM2BbVPuo5-23" value="Search" style="strokeWidth=1;shadow=0;dashed=0;align=center;html=1;shape=mxgraph.mockup.forms.searchBox;strokeColor=#999999;mainText=;strokeColor2=#008cff;fontColor=#666666;fontSize=17;align=left;spacingLeft=3;whiteSpace=wrap;" vertex="1" parent="H8n-07sDliXM2BbVPuo5-1">
          <mxGeometry x="5" y="190" width="145" height="30" as="geometry" />
        </mxCell>
        <mxCell id="H8n-07sDliXM2BbVPuo5-24" value="Kittens" style="text;strokeColor=none;align=center;fillColor=none;html=1;verticalAlign=middle;whiteSpace=wrap;rounded=0;" vertex="1" parent="H8n-07sDliXM2BbVPuo5-1">
          <mxGeometry x="70" y="190" width="60" height="30" as="geometry" />
        </mxCell>
        <mxCell id="H8n-07sDliXM2BbVPuo5-25" value="" style="html=1;shadow=0;dashed=0;align=center;verticalAlign=middle;shape=mxgraph.arrows2.arrow;dy=0.6;dx=40;direction=north;notch=0;" vertex="1" parent="H8n-07sDliXM2BbVPuo5-1">
          <mxGeometry x="60" y="220" width="70" height="60" as="geometry" />
        </mxCell>
        <mxCell id="H8n-07sDliXM2BbVPuo5-5" value="&lt;font size=&quot;3&quot;&gt;Home&lt;/font&gt;" style="rounded=0;whiteSpace=wrap;html=1;" vertex="1" parent="H8n-07sDliXM2BbVPuo5-1">
          <mxGeometry x="40" y="110" width="90" height="60" as="geometry" />
        </mxCell>
        <mxCell id="H8n-07sDliXM2BbVPuo5-26" value="" style="html=1;shadow=0;dashed=0;align=center;verticalAlign=middle;shape=mxgraph.arrows2.arrow;dy=0.6;dx=40;flipH=1;notch=0;" vertex="1" parent="H8n-07sDliXM2BbVPuo5-1">
          <mxGeometry x="270" y="175" width="80" height="60" as="geometry" />
        </mxCell>
        <mxCell id="H8n-07sDliXM2BbVPuo5-27" value="" style="whiteSpace=wrap;html=1;aspect=fixed;" vertex="1" parent="H8n-07sDliXM2BbVPuo5-1">
          <mxGeometry x="10" y="340" width="230" height="230" as="geometry" />
        </mxCell>
        <mxCell id="H8n-07sDliXM2BbVPuo5-28" value="&lt;font style=&quot;font-size: 24px;&quot;&gt;I&lt;font style=&quot;&quot;&gt;m&lt;/font&gt;&lt;font style=&quot;&quot;&gt;age of Kitten&lt;/font&gt;&lt;/font&gt;" style="text;strokeColor=none;align=center;fillColor=none;html=1;verticalAlign=middle;whiteSpace=wrap;rounded=0;" vertex="1" parent="H8n-07sDliXM2BbVPuo5-1">
          <mxGeometry x="30" y="360" width="200" height="100" as="geometry" />
        </mxCell>
        <mxCell id="H8n-07sDliXM2BbVPuo5-7" value="About" style="text;strokeColor=none;align=center;fillColor=none;html=1;verticalAlign=middle;whiteSpace=wrap;rounded=0;" vertex="1" parent="1">
          <mxGeometry x="110" y="130" width="60" height="30" as="geometry" />
        </mxCell>
        <mxCell id="H8n-07sDliXM2BbVPuo5-8" value="Shop" style="text;strokeColor=none;align=center;fillColor=none;html=1;verticalAlign=middle;whiteSpace=wrap;rounded=0;" vertex="1" parent="1">
          <mxGeometry x="160" y="130" width="60" height="30" as="geometry" />
        </mxCell>
        <mxCell id="H8n-07sDliXM2BbVPuo5-9" value="Login" style="text;strokeColor=none;align=center;fillColor=none;html=1;verticalAlign=middle;whiteSpace=wrap;rounded=0;" vertex="1" parent="1">
          <mxGeometry x="210" y="130" width="60" height="30" as="geometry" />
        </mxCell>
        <mxCell id="H8n-07sDliXM2BbVPuo5-10" value="Register" style="text;strokeColor=none;align=center;fillColor=none;html=1;verticalAlign=middle;whiteSpace=wrap;rounded=0;" vertex="1" parent="1">
          <mxGeometry x="260" y="130" width="60" height="30" as="geometry" />
        </mxCell>
        <mxCell id="H8n-07sDliXM2BbVPuo5-11" value="Contact" style="text;strokeColor=none;align=center;fillColor=none;html=1;verticalAlign=middle;whiteSpace=wrap;rounded=0;" vertex="1" parent="1">
          <mxGeometry x="310" y="130" width="60" height="30" as="geometry" />
        </mxCell>
        <mxCell id="H8n-07sDliXM2BbVPuo5-12" value="Dashboard" style="text;strokeColor=none;align=center;fillColor=none;html=1;verticalAlign=middle;whiteSpace=wrap;rounded=0;" vertex="1" parent="1">
          <mxGeometry x="370" y="130" width="60" height="30" as="geometry" />
        </mxCell>
        <mxCell id="H8n-07sDliXM2BbVPuo5-15" value="" style="endArrow=none;html=1;rounded=0;entryX=0.662;entryY=0.959;entryDx=0;entryDy=0;entryPerimeter=0;" edge="1" parent="1">
          <mxGeometry width="50" height="50" relative="1" as="geometry">
            <mxPoint x="770" y="120" as="sourcePoint" />
            <mxPoint x="832.6999999999998" y="119.9999999999998" as="targetPoint" />
          </mxGeometry>
        </mxCell>
        <mxCell id="H8n-07sDliXM2BbVPuo5-16" value="" style="endArrow=none;html=1;rounded=0;" edge="1" parent="1">
          <mxGeometry width="50" height="50" relative="1" as="geometry">
            <mxPoint x="830" y="140" as="sourcePoint" />
            <mxPoint x="760" y="140" as="targetPoint" />
            <Array as="points" />
          </mxGeometry>
        </mxCell>
        <mxCell id="H8n-07sDliXM2BbVPuo5-19" value="" style="endArrow=none;html=1;rounded=0;" edge="1" parent="1">
          <mxGeometry width="50" height="50" relative="1" as="geometry">
            <mxPoint x="800" y="160" as="sourcePoint" />
            <mxPoint x="830" y="160" as="targetPoint" />
            <Array as="points">
              <mxPoint x="770" y="160" />
              <mxPoint x="800" y="160" />
            </Array>
          </mxGeometry>
        </mxCell>
        <mxCell id="H8n-07sDliXM2BbVPuo5-29" value="&lt;span style=&quot;font-size: 24px;&quot;&gt;Screen above 1080px&lt;/span&gt;" style="text;strokeColor=none;align=center;fillColor=none;html=1;verticalAlign=middle;whiteSpace=wrap;rounded=0;" vertex="1" parent="1">
          <mxGeometry x="260" y="370" width="290" height="130" as="geometry" />
        </mxCell>
        <mxCell id="H8n-07sDliXM2BbVPuo5-30" value="" style="html=1;shadow=0;dashed=0;align=center;verticalAlign=middle;shape=mxgraph.arrows2.sharpArrow;dy1=0.67;dx1=18;dx2=18;notch=0;" vertex="1" parent="1">
          <mxGeometry x="840" y="420" width="160" height="120" as="geometry" />
        </mxCell>
        <mxCell id="H8n-07sDliXM2BbVPuo5-34" value="" style="strokeWidth=1;shadow=0;dashed=0;align=center;html=1;shape=mxgraph.mockup.containers.browserWindow;rSize=0;strokeColor=#666666;strokeColor2=#008cff;strokeColor3=#c4c4c4;mainText=,;recursiveResize=0;" vertex="1" parent="1">
          <mxGeometry x="1130" y="45" width="510" height="870" as="geometry" />
        </mxCell>
        <mxCell id="H8n-07sDliXM2BbVPuo5-36" value="https://www.draw.io" style="strokeWidth=1;shadow=0;dashed=0;align=center;html=1;shape=mxgraph.mockup.containers.anchor;rSize=0;fontSize=17;fontColor=#666666;align=left;" vertex="1" parent="H8n-07sDliXM2BbVPuo5-34">
          <mxGeometry x="130" y="60" width="250" height="26" as="geometry" />
        </mxCell>
        <mxCell id="H8n-07sDliXM2BbVPuo5-38" value="" style="swimlane;shape=mxgraph.bootstrap.anchor;strokeColor=none;fillColor=none;fontColor=#0085FC;fontStyle=0;childLayout=stackLayout;horizontal=1;startSize=0;horizontalStack=0;resizeParent=1;resizeParentMax=0;resizeLast=0;collapsible=0;marginBottom=0;whiteSpace=wrap;html=1;" vertex="1" parent="H8n-07sDliXM2BbVPuo5-34">
          <mxGeometry y="170" width="150" height="160" as="geometry" />
        </mxCell>
        <mxCell id="H8n-07sDliXM2BbVPuo5-39" value="Active" style="text;strokeColor=inherit;align=left;verticalAlign=middle;spacingLeft=10;spacingRight=10;overflow=hidden;points=[[0,0.5],[1,0.5]];portConstraint=eastwest;rotatable=0;whiteSpace=wrap;html=1;shape=mxgraph.bootstrap.leftButton;rSize=5;fillColor=inherit;fontColor=inherit;fontSize=14;" vertex="1" parent="H8n-07sDliXM2BbVPuo5-38">
          <mxGeometry width="150" height="40" as="geometry" />
        </mxCell>
        <mxCell id="H8n-07sDliXM2BbVPuo5-40" value="Link" style="text;strokeColor=inherit;align=left;verticalAlign=middle;spacingLeft=10;spacingRight=10;overflow=hidden;points=[[0,0.5],[1,0.5]];portConstraint=eastwest;rotatable=0;whiteSpace=wrap;html=1;rSize=5;fillColor=inherit;fontColor=inherit;fontSize=14;" vertex="1" parent="H8n-07sDliXM2BbVPuo5-38">
          <mxGeometry y="40" width="150" height="40" as="geometry" />
        </mxCell>
        <mxCell id="H8n-07sDliXM2BbVPuo5-41" value="Link" style="text;strokeColor=inherit;align=left;verticalAlign=middle;spacingLeft=10;spacingRight=10;overflow=hidden;points=[[0,0.5],[1,0.5]];portConstraint=eastwest;rotatable=0;whiteSpace=wrap;html=1;rSize=5;fillColor=inherit;fontColor=inherit;fontSize=14;" vertex="1" parent="H8n-07sDliXM2BbVPuo5-38">
          <mxGeometry y="80" width="150" height="40" as="geometry" />
        </mxCell>
        <mxCell id="H8n-07sDliXM2BbVPuo5-42" value="Disabled" style="text;strokeColor=inherit;align=left;verticalAlign=middle;spacingLeft=10;spacingRight=10;overflow=hidden;points=[[0,0.5],[1,0.5]];portConstraint=eastwest;rotatable=0;whiteSpace=wrap;html=1;shape=mxgraph.bootstrap.rightButton;rSize=5;fillColor=inherit;fontColor=#7D868C;fontSize=14;" vertex="1" parent="H8n-07sDliXM2BbVPuo5-38">
          <mxGeometry y="120" width="150" height="40" as="geometry" />
        </mxCell>
        <mxCell id="H8n-07sDliXM2BbVPuo5-43" value="" style="rounded=0;whiteSpace=wrap;html=1;" vertex="1" parent="H8n-07sDliXM2BbVPuo5-34">
          <mxGeometry y="130" width="70" height="40" as="geometry" />
        </mxCell>
        <mxCell id="H8n-07sDliXM2BbVPuo5-44" value="&lt;span style=&quot;font-size: 14px;&quot;&gt;Home&lt;/span&gt;" style="text;strokeColor=none;align=center;fillColor=none;html=1;verticalAlign=middle;whiteSpace=wrap;rounded=0;" vertex="1" parent="H8n-07sDliXM2BbVPuo5-34">
          <mxGeometry y="140" width="60" height="30" as="geometry" />
        </mxCell>
        <mxCell id="H8n-07sDliXM2BbVPuo5-46" value="" style="shape=link;html=1;rounded=0;entryX=0.22;entryY=1.007;entryDx=0;entryDy=0;entryPerimeter=0;exitX=0.22;exitY=0.402;exitDx=0;exitDy=0;exitPerimeter=0;" edge="1" parent="H8n-07sDliXM2BbVPuo5-34" source="H8n-07sDliXM2BbVPuo5-34">
          <mxGeometry width="100" relative="1" as="geometry">
            <mxPoint x="-40" y="290" as="sourcePoint" />
            <mxPoint x="107.80000000000018" y="170.41999999999996" as="targetPoint" />
          </mxGeometry>
        </mxCell>
        <mxCell id="H8n-07sDliXM2BbVPuo5-69" value="" style="rounded=0;whiteSpace=wrap;html=1;" vertex="1" parent="H8n-07sDliXM2BbVPuo5-34">
          <mxGeometry y="110" width="500" height="70" as="geometry" />
        </mxCell>
        <mxCell id="H8n-07sDliXM2BbVPuo5-70" value="" style="html=1;shadow=0;dashed=0;align=center;verticalAlign=middle;shape=mxgraph.arrows2.arrow;dy=0.6;dx=40;direction=north;notch=0;" vertex="1" parent="H8n-07sDliXM2BbVPuo5-34">
          <mxGeometry x="430" y="170" width="70" height="100" as="geometry" />
        </mxCell>
        <mxCell id="H8n-07sDliXM2BbVPuo5-71" value="" style="rounded=0;whiteSpace=wrap;html=1;" vertex="1" parent="H8n-07sDliXM2BbVPuo5-34">
          <mxGeometry y="115" width="120" height="60" as="geometry" />
        </mxCell>
        <mxCell id="H8n-07sDliXM2BbVPuo5-72" value="&lt;font style=&quot;font-size: 18px;&quot;&gt;&amp;nbsp; &amp;nbsp;Home&lt;/font&gt;" style="text;strokeColor=none;align=center;fillColor=none;html=1;verticalAlign=middle;whiteSpace=wrap;rounded=0;" vertex="1" parent="H8n-07sDliXM2BbVPuo5-34">
          <mxGeometry x="-10" y="135" width="70" height="35" as="geometry" />
        </mxCell>
        <mxCell id="H8n-07sDliXM2BbVPuo5-73" value="&lt;span style=&quot;font-size: 18px;&quot;&gt;when hamburger clicked&lt;/span&gt;" style="text;strokeColor=none;align=center;fillColor=none;html=1;verticalAlign=middle;whiteSpace=wrap;rounded=0;" vertex="1" parent="H8n-07sDliXM2BbVPuo5-34">
          <mxGeometry x="360" y="280" width="150" height="90" as="geometry" />
        </mxCell>
        <mxCell id="H8n-07sDliXM2BbVPuo5-74" value="" style="html=1;shadow=0;dashed=0;align=center;verticalAlign=middle;shape=mxgraph.arrows2.arrow;dy=0.6;dx=40;flipH=1;notch=0;" vertex="1" parent="H8n-07sDliXM2BbVPuo5-34">
          <mxGeometry x="130" y="215" width="250" height="75" as="geometry" />
        </mxCell>
        <mxCell id="H8n-07sDliXM2BbVPuo5-75" value="&lt;span style=&quot;font-size: 18px;&quot;&gt;you get a responsive nav bar that works on anything below 1080px&lt;/span&gt;" style="text;strokeColor=none;align=center;fillColor=none;html=1;verticalAlign=middle;whiteSpace=wrap;rounded=0;" vertex="1" parent="H8n-07sDliXM2BbVPuo5-34">
          <mxGeometry x="100" y="320" width="180" height="200" as="geometry" />
        </mxCell>
        <mxCell id="H8n-07sDliXM2BbVPuo5-76" value="&lt;font style=&quot;font-size: 14px;&quot;&gt;Page 2&lt;/font&gt;" style="text;strokeColor=none;align=center;fillColor=none;html=1;verticalAlign=middle;whiteSpace=wrap;rounded=0;" vertex="1" parent="H8n-07sDliXM2BbVPuo5-34">
          <mxGeometry x="-20" y="15" width="200" height="30" as="geometry" />
        </mxCell>
        <mxCell id="H8n-07sDliXM2BbVPuo5-48" value="" style="endArrow=none;html=1;rounded=0;" edge="1" parent="1" target="H8n-07sDliXM2BbVPuo5-34">
          <mxGeometry width="50" height="50" relative="1" as="geometry">
            <mxPoint x="1570" y="180" as="sourcePoint" />
            <mxPoint x="1150" y="310" as="targetPoint" />
            <Array as="points">
              <mxPoint x="1610" y="180" />
            </Array>
          </mxGeometry>
        </mxCell>
        <mxCell id="H8n-07sDliXM2BbVPuo5-61" value="" style="endArrow=none;html=1;rounded=0;" edge="1" parent="1">
          <mxGeometry width="50" height="50" relative="1" as="geometry">
            <mxPoint x="1580" y="190" as="sourcePoint" />
            <mxPoint x="1620" y="190" as="targetPoint" />
            <Array as="points">
              <mxPoint x="1620" y="190" />
            </Array>
          </mxGeometry>
        </mxCell>
        <mxCell id="H8n-07sDliXM2BbVPuo5-63" value="" style="endArrow=none;html=1;rounded=0;" edge="1" parent="1">
          <mxGeometry width="50" height="50" relative="1" as="geometry">
            <mxPoint x="1610" y="199.2452830188679" as="sourcePoint" />
            <mxPoint x="1630" y="200" as="targetPoint" />
            <Array as="points">
              <mxPoint x="1630" y="200" />
              <mxPoint x="1580" y="200" />
            </Array>
          </mxGeometry>
        </mxCell>
      </root>
    </mxGraphModel>
  </diagram>
</mxfile>
